<?xml version="1.0" standalone="no"?>
<!DOCTYPE svg PUBLIC "-//W3C//DTD SVG 20010904//EN"
 "http://www.w3.org/TR/2001/REC-SVG-20010904/DTD/svg10.dtd">
<svg version="1.0" xmlns="http://www.w3.org/2000/svg"
 width="1701.000000pt" height="1701.000000pt" viewBox="0 0 1701.000000 1701.000000"
 preserveAspectRatio="xMidYMid meet">
<metadata>
Created by potrace 1.11, written by Peter Selinger 2001-2013
</metadata>
<g transform="translate(0.000000,1701.000000) scale(0.100000,-0.100000)"
fill="#000000" stroke="none">
<path d="M8098 16675 c-2 -1 -66 -6 -143 -9 -77 -4 -156 -9 -175 -11 -19 -2
-70 -6 -112 -10 -42 -3 -92 -8 -110 -10 -18 -2 -62 -6 -98 -10 -36 -3 -90 -10
-120 -15 -30 -5 -77 -12 -105 -15 -27 -3 -57 -8 -65 -10 -8 -2 -37 -6 -65 -10
-45 -5 -230 -39 -360 -65 -27 -6 -63 -13 -80 -16 -16 -3 -102 -23 -190 -45
-88 -22 -169 -42 -180 -45 -11 -2 -74 -20 -140 -39 -66 -20 -127 -37 -135 -39
-75 -21 -290 -93 -474 -160 -420 -154 -920 -395 -1331 -641 -113 -68 -331
-205 -360 -227 -5 -5 -66 -47 -135 -95 -112 -77 -371 -270 -431 -321 -13 -11
-69 -57 -124 -103 -541 -447 -1075 -1032 -1491 -1634 -80 -115 -225 -338 -244
-375 -7 -14 -16 -27 -19 -30 -3 -3 -11 -14 -17 -25 -6 -11 -46 -81 -89 -155
-77 -133 -286 -538 -337 -655 -15 -33 -41 -91 -58 -130 -40 -89 -171 -414
-175 -437 -2 -9 -8 -25 -13 -35 -15 -27 -136 -400 -177 -543 -34 -116 -118
-452 -129 -510 -2 -14 -7 -36 -10 -50 -3 -14 -8 -37 -11 -52 -3 -16 -7 -40
-10 -55 -3 -16 -8 -39 -11 -53 -6 -26 -7 -31 -24 -128 -14 -85 -19 -113 -25
-157 -4 -22 -8 -51 -10 -65 -2 -14 -7 -47 -10 -75 -3 -27 -8 -61 -10 -75 -3
-14 -7 -52 -10 -85 -4 -33 -8 -71 -10 -85 -2 -14 -6 -61 -10 -105 -3 -44 -8
-96 -10 -115 -27 -229 -27 -1049 0 -1300 2 -19 6 -71 10 -115 3 -44 8 -91 10
-105 3 -14 7 -52 10 -85 4 -33 8 -67 10 -75 2 -8 7 -44 10 -80 3 -36 8 -72 10
-80 3 -8 11 -60 20 -115 8 -55 17 -111 20 -125 3 -14 9 -50 15 -80 6 -30 12
-64 14 -75 2 -11 14 -67 26 -125 47 -232 137 -566 223 -830 45 -137 130 -378
147 -415 5 -11 19 -45 31 -75 91 -233 336 -752 429 -910 15 -25 64 -110 110
-190 73 -126 160 -267 226 -364 10 -16 30 -46 44 -67 63 -96 321 -453 340
-469 3 -3 30 -36 60 -75 30 -38 57 -72 60 -75 3 -3 28 -32 55 -65 27 -33 68
-80 90 -106 22 -25 71 -81 110 -125 88 -100 484 -497 589 -589 44 -39 84 -75
90 -80 14 -14 200 -171 251 -212 22 -18 87 -69 145 -113 58 -44 118 -90 134
-103 174 -134 593 -406 836 -542 58 -33 107 -63 108 -67 2 -4 9 -8 16 -8 7 0
50 -21 97 -46 242 -131 632 -307 899 -406 58 -21 114 -43 125 -48 54 -23 421
-141 555 -177 30 -8 79 -21 108 -29 121 -33 234 -60 387 -95 68 -15 68 -15
165 -33 47 -8 99 -18 115 -21 59 -12 388 -61 470 -70 254 -29 371 -39 619 -51
252 -11 654 -7 901 11 22 1 85 6 140 9 55 4 111 9 125 11 14 2 48 6 75 9 86
10 229 27 255 31 25 3 112 16 140 20 8 2 29 5 45 8 17 4 62 11 100 17 39 6
124 22 190 36 66 14 129 27 140 29 34 5 208 45 215 50 4 2 20 7 36 9 16 3 79
20 139 36 61 17 115 32 120 34 6 1 37 10 70 20 33 10 65 19 70 20 15 3 87 26
110 36 11 4 40 14 65 21 25 7 81 26 125 42 130 47 318 118 340 127 11 5 58 25
105 44 79 32 121 50 315 139 159 73 416 207 605 315 379 217 864 554 1160 807
20 16 58 49 85 72 149 125 270 237 470 438 176 175 310 318 381 405 16 19 34
40 40 45 19 18 198 237 265 325 35 47 69 90 74 96 81 93 413 593 530 799 25
44 63 112 85 150 47 82 253 491 294 585 182 413 344 860 431 1190 30 113 67
260 71 280 3 14 9 41 14 60 36 138 118 588 136 745 3 33 8 69 10 80 6 31 19
155 29 280 4 44 9 96 11 115 25 250 25 933 0 1240 -15 178 -18 208 -22 233 -2
15 -6 51 -9 80 -2 29 -6 68 -9 87 -3 19 -10 73 -16 120 -6 47 -15 108 -20 135
-6 28 -16 91 -25 140 -8 50 -17 101 -20 115 -2 14 -7 36 -10 50 -3 14 -8 43
-11 65 -3 22 -8 43 -10 46 -2 3 -6 21 -9 40 -3 19 -12 59 -20 89 -8 30 -16 66
-19 80 -9 52 -59 241 -102 390 -295 1007 -776 1943 -1418 2760 -112 142 -102
130 -196 240 -208 245 -444 492 -674 704 -54 50 -104 97 -111 103 -7 7 -66 58
-132 113 -65 55 -125 106 -133 114 -36 32 -304 238 -395 304 -55 39 -104 75
-110 80 -19 15 -360 239 -390 256 -16 9 -52 31 -80 48 -56 34 -101 61 -160 94
-22 12 -60 33 -85 47 -128 72 -169 94 -335 176 -242 120 -535 248 -755 329
-30 11 -91 34 -135 50 -312 115 -841 259 -1200 326 -88 17 -327 56 -370 61
-27 3 -59 8 -70 10 -11 2 -47 7 -80 10 -33 4 -71 8 -85 11 -14 2 -54 7 -90 10
-36 3 -81 7 -100 9 -34 4 -113 10 -270 21 -78 6 -777 14 -782 9z"/>
</g>
</svg>
